<?xml version="1.0" standalone="no"?><!DOCTYPE svg PUBLIC "-//W3C//DTD SVG 1.1//EN" "http://www.w3.org/Graphics/SVG/1.1/DTD/svg11.dtd"><svg t="1678976712985" class="icon" viewBox="0 0 1024 1024" version="1.1" xmlns="http://www.w3.org/2000/svg" p-id="3607" width="16" height="16" xmlns:xlink="http://www.w3.org/1999/xlink"><path d="M512 969.142857A457.142857 457.142857 0 1 1 969.142857 512 457.508571 457.508571 0 0 1 512 969.142857z m0-877.714286A420.571429 420.571429 0 1 0 932.571429 512 420.937143 420.937143 0 0 0 512 91.428571z" fill="#bfbfbf" p-id="3608" data-spm-anchor-id="a313x.7781069.0.i20" class="selected"></path><path d="M629.028571 540.16a121.051429 121.051429 0 0 0-99.108571-12.068571h-4.754286c-16.091429 98.011429 1.828571 229.302857 80.822857 290.742857a14.262857 14.262857 0 1 1-17.188571 22.308571c-86.674286-67.291429-109.714286-207.36-91.794286-313.417143h-2.925714a121.051429 121.051429 0 0 0-99.108571 12.068572c-43.52 22.674286-162.742857 36.571429-160.182858-36.571429 0-46.445714 41.691429-59.977143 44.251429-66.925714a91.794286 91.794286 0 0 1 9.142857-79.725714c44.617143-57.051429 126.902857 30.354286 146.285714 75.702857a121.051429 121.051429 0 0 0 66.194286 73.142857 121.051429 121.051429 0 0 0-44.982857-86.674286c-36.571429-33.28-90.331429-140.434286-21.211429-162.742857a91.794286 91.794286 0 0 1 77.531429 18.285714 91.794286 91.794286 0 0 1 78.262857-18.285714c68.754286 22.674286 14.994286 129.828571-21.211428 162.742857a121.051429 121.051429 0 0 0-44.982858 86.674286 121.051429 121.051429 0 0 0 66.194286-73.142857c18.651429-45.348571 100.937143-132.754286 146.285714-75.702857a91.794286 91.794286 0 0 1 8.777143 82.285714c2.56 6.948571 42.788571 20.48 44.251429 66.925714 2.194286 71.314286-117.028571 57.417143-160.548572 34.377143z" fill="#E79A4F" p-id="3609"></path><path d="M514.56 508.342857a14.262857 14.262857 0 0 0-16.457143 11.337143v8.777143a51.931429 51.931429 0 0 0 28.16 0v-4.388572a14.262857 14.262857 0 0 0-11.702857-15.725714z" fill="#E79A4F" p-id="3610"></path></svg>